#!OML:ASF I:\Actors\actors\Patient Classification 2\Patient 1\Session 1\actor1.ASF
:FULLY-SPECIFIED
:DEGREES
174
root -0.666548 18.7407 5.5568 2.80081 -5.62358 -4.97487
lowerback 8.27496 0.288322 0.16592
upperback 3.0284 0.394444 0.18474
thorax -1.50794 0.194273 0.0600623
lowerneck 1.63423 0.10323 0.511618
upperneck 4.09254 -0.0202007 5.1139
head 0.991032 0.0459965 1.50007
rclavicle -5.96354e-016 8.74653e-015
rhumerus 15.9195 11.4311 -31.4027
rradius 129.079
rwrist -61.2489
rhand 22.3305 -58.4303
rfingers 7.12502
rthumb 46.6996 -81.2277
lclavicle -5.96354e-016 8.74653e-015
lhumerus -31.5652 -28.7085 85.5908
lradius 124.351
lwrist 14.4206
lhand -3.01896 -31.5322
lfingers 7.12502
lthumb 22.6958 -2.84684
rfemur 0 0 0
rtibia 0
rfoot 0 0
rtoes 0
lfemur -6.49706 -4.49071 -9.27924
ltibia 23.4229
lfoot -24.2442 16.1111
ltoes -54.7888
175
root -0.666011 18.74 5.55677 2.79479 -5.61347 -4.99281
lowerback 8.25574 0.269442 0.184277
upperback 2.98468 0.371286 0.197636
thorax -1.54239 0.182761 0.0651677
lowerneck 1.60092 0.105397 0.417398
upperneck 4.12803 -0.0231992 5.20804
head 1.00849 0.0451949 1.54681
rclavicle 1.0138e-014 1.82882e-014
rhumerus 15.9919 11.3 -31.3054
rradius 129.038
rwrist -60.5332
rhand 22.0833 -58.1064
rfingers 7.12502
rthumb 46.4706 -81.0023
lclavicle 1.0138e-014 1.82882e-014
lhumerus -31.652 -28.6452 85.6402
lradius 124.331
lwrist 14.3948
lhand -3.16042 -31.62
lfingers 7.12502
lthumb 22.56 -2.91813
rfemur 0 0 0
rtibia 0
rfoot 0 0
rtoes 0
lfemur -6.4875 -4.55293 -9.26601
ltibia 23.4212
lfoot -24.2915 16.1353
ltoes -54.7401
176
root -0.665262 18.7397 5.55731 2.78465 -5.61153 -5.00532
lowerback 8.22676 0.277162 0.216321
upperback 2.97396 0.383756 0.184915
thorax -1.53715 0.189161 0.0330076
lowerneck 1.59476 0.102721 0.413348
upperneck 4.03148 -0.0247672 5.28767
head 0.979729 0.0433343 1.57232
rclavicle 1.33186e-014 -2.38542e-015
rhumerus 16.0262 11.103 -31.2433
rradius 128.991
rwrist -60.0734
rhand 21.5679 -57.734
rfingers 7.12502
rthumb 45.9927 -80.8316
lclavicle 1.33186e-014 -2.38542e-015
lhumerus -31.6386 -28.6645 85.6401
lradius 124.293
lwrist 14.403
lhand -3.26854 -31.8084
lfingers 7.12502
lthumb 22.4562 -3.09393
rfemur 0 0 0
rtibia 0
rfoot 0 0
rtoes 0
lfemur -6.47101 -4.5706 -9.25858
ltibia 23.4137
lfoot -24.3426 16.1542
ltoes -54.6916
177
root -0.665223 18.74 5.55836 2.78354 -5.61959 -4.99587
lowerback 8.1625 0.283052 0.18255
upperback 2.96562 0.388994 0.193563
thorax -1.51054 0.191663 0.0607082
lowerneck 1.60182 0.109591 0.440254
upperneck 3.93763 -0.00996052 5.26101
head 0.948616 0.0489212 1.55851
rclavicle -2.78299e-014 2.62396e-014
rhumerus 16.0972 10.9335 -31.1299
rradius 128.978
rwrist -59.4059
rhand 21.0072 -57.2707
rfingers 7.12502
rthumb 45.4721 -80.5818
lclavicle -2.78299e-014 2.62396e-014
lhumerus -31.6513 -28.6202 85.6753
lradius 124.281
lwrist 14.4159
lhand -3.28401 -31.9331
lfingers 7.12502
lthumb 22.4414 -3.21688
rfemur 0 0 0
rtibia 0
rfoot 0 0
rtoes 0
lfemur -6.46201 -4.55736 -9.27082
ltibia 23.4078
lfoot -24.3545 16.1633
ltoes -54.7413
178
root -0.665912 18.7401 5.5596 2.77515 -5.60811 -4.98073
lowerback 8.10433 0.300256 0.149645
upperback 2.95685 0.409014 0.18419
thorax -1.48761 0.201605 0.0679751
lowerneck 1.57183 0.0861502 0.593984
upperneck 3.89767 -0.0354787 5.14123
head 0.941032 0.0368781 1.49342
rclavicle -1.70955e-014 6.36111e-015
rhumerus 16.0967 10.7734 -31.0447
rradius 128.982
rwrist -58.1006
rhand 20.8433 -56.6903
rfingers 7.12502
rthumb 45.3199 -80.0627
lclavicle -1.70955e-014 6.36111e-015
lhumerus -31.653 -28.6214 85.6942
lradius 124.286
lwrist 14.4638
lhand -3.48455 -31.8535
lfingers 7.12502
lthumb 22.2489 -3.11417
rfemur 0 0 0
rtibia 0
rfoot 0 0
rtoes 0
lfemur -6.45483 -4.51909 -9.28166
ltibia 23.4068
lfoot -24.3035 16.1281
ltoes -54.8474
179
root -0.665765 18.7393 5.56089 2.73591 -5.58339 -4.97254
lowerback 8.0892 0.306917 0.161897
upperback 2.94845 0.418278 0.15733
thorax -1.48762 0.206395 0.0326393
lowerneck 1.49173 0.0800976 0.679645
upperneck 3.94399 -0.0461811 5.11116
head 0.969005 0.0344996 1.46961
rclavicle 5.96354e-016 -1.03368e-014
rhumerus 16.0886 10.6652 -31.0304
rradius 128.989
rwrist -56.49
rhand 20.9338 -56.0981
rfingers 7.12502
rthumb 45.404 -79.4367
lclavicle 5.96354e-016 -1.03368e-014
lhumerus -31.6587 -28.6292 85.6903
lradius 124.306
lwrist 14.5602
lhand -3.86587 -31.6772
lfingers 7.12502
lthumb 21.8828 -2.8946
rfemur 0 0 0
rtibia 0
rfoot 0 0
rtoes 0
lfemur -6.42116 -4.5092 -9.29284
ltibia 23.4112
lfoot -24.273 16.0833
ltoes -54.8294
180
root -0.66496 18.7384 5.56199 2.70521 -5.56976 -4.97695
lowerback 8.0575 0.293748 0.172374
upperback 2.95114 0.401659 0.163186
thorax -1.46731 0.198156 0.0344966
lowerneck 1.28755 0.10259 0.558765
upperneck 4.10085 -0.0314702 5.20177
head 1.0531 0.047047 1.52132
rclavicle 1.82882e-014 -8.74653e-015
rhumerus 16.1335 10.5994 -31.0076
rradius 128.978
rwrist -55.208
rhand 20.8038 -55.5954
rfingers 7.12502
rthumb 45.2831 -78.9826
lclavicle 1.82882e-014 -8.74653e-015
lhumerus -31.6798 -28.5409 85.7323
lradius 124.323
lwrist 14.6161
lhand -4.02626 -31.5752
lfingers 7.12502
lthumb 21.7287 -2.77468
rfemur 0 0 0
rtibia 0
rfoot 0 0
rtoes 0
lfemur -6.39245 -4.52376 -9.29524
ltibia 23.4221
lfoot -24.2699 16.0789
ltoes -54.7839
181
root -0.664856 18.7382 5.56284 2.6991 -5.56164 -4.99033
lowerback 7.99867 0.286509 0.163988
upperback 2.94689 0.391887 0.191514
thorax -1.43945 0.193182 0.0695693
lowerneck 1.126 0.105325 0.436361
upperneck 4.21216 -0.0391441 5.27516
head 1.11647 0.0467399 1.56748
rclavicle 8.74653e-015 -2.06736e-014
rhumerus 16.1547 10.5351 -30.9511
rradius 128.957
rwrist -54.3146
rhand 20.6025 -55.1179
rfingers 7.12502
rthumb 45.096 -78.5796
lclavicle 8.74653e-015 -2.06736e-014
lhumerus -31.707 -28.4438 85.8106
lradius 124.311
lwrist 14.6035
lhand -4.00926 -31.5062
lfingers 7.12502
lthumb 21.7451 -2.70761
rfemur 0 0 0
rtibia 0
rfoot 0 0
rtoes 0
lfemur -6.38843 -4.5443 -9.28451
ltibia 23.439
lfoot -24.2433 16.1153
ltoes -54.8727
182
root -0.665039 18.7386 5.56342 2.69247 -5.55734 -4.99209
lowerback 7.96889 0.274325 0.142853
upperback 2.90398 0.374525 0.204617
thorax -1.46746 0.184421 0.0965194
lowerneck 1.1994 0.112924 0.409547
upperneck 4.18296 -0.0264836 5.28661
head 1.09455 0.0511444 1.57533
rclavicle -2.89232e-014 2.46493e-014
rhumerus 16.1238 10.5453 -30.9541
rradius 129.001
rwrist -53.4153
rhand 20.3286 -54.737
rfingers 7.12502
rthumb 44.8411 -78.2989
lclavicle -2.89232e-014 2.46493e-014
lhumerus -31.817 -28.3581 85.8888
lradius 124.308
lwrist 14.5843
lhand -4.05165 -31.4386
lfingers 7.12502
lthumb 21.7044 -2.63528
rfemur 0 0 0
rtibia 0
rfoot 0 0
rtoes 0
lfemur -6.38592 -4.57578 -9.28976
ltibia 23.4584
lfoot -24.2307 16.1673
ltoes -54.9854
183
root -0.665034 18.7391 5.56395 2.68816 -5.5515 -5.00558
lowerback 7.93544 0.254031 0.144247
upperback 2.84943 0.347903 0.205445
thorax -1.50518 0.171186 0.0989995
lowerneck 1.3406 0.124861 0.387188
upperneck 4.1351 -0.0059565 5.30285
head 1.05502 0.0582307 1.58355
rclavicle 1.2921e-015 1.11319e-014
rhumerus 16.0698 10.5894 -31.0164
rradius 129.091
rwrist -52.3296
rhand 19.7424 -54.3806
rfingers 7.12502
rthumb 44.295 -78.1526
lclavicle 1.2921e-015 1.11319e-014
lhumerus -31.9591 -28.2816 85.9491
lradius 124.315
lwrist 14.5651
lhand -4.07871 -31.4009
lfingers 7.12502
lthumb 21.6784 -2.5946
rfemur 0 0 0
rtibia 0
rfoot 0 0
rtoes 0
lfemur -6.38471 -4.58003 -9.27773
ltibia 23.4758
lfoot -24.2691 16.1424
ltoes -54.9469
184
root -0.66476 18.7384 5.56503 2.68071 -5.55275 -5.03919
lowerback 7.87962 0.248471 0.166293
upperback 2.81987 0.342532 0.221539
thorax -1.50475 0.168559 0.103842
lowerneck 1.41394 0.12644 0.386534
upperneck 4.09672 0.000530135 5.27002
head 1.03018 0.059316 1.5726
rclavicle -2.17669e-014 3.18055e-015
rhumerus 16.0264 10.5754 -31.0446
rradius 129.143
rwrist -51.1392
rhand 19.3708 -53.862
rfingers 7.12502
rthumb 43.9485 -77.764
lclavicle -2.17669e-014 3.18055e-015
lhumerus -32.0103 -28.2418 85.999
lradius 124.317
lwrist 14.565
lhand -4.06792 -31.3839
lfingers 7.12502
lthumb 21.6887 -2.57882
rfemur 0 0 0
rtibia 0
rfoot 0 0
rtoes 0
lfemur -6.36945 -4.61084 -9.24345
ltibia 23.4873
lfoot -24.3513 16.0896
ltoes -54.8136
185
root -0.664297 18.737 5.56648 2.6711 -5.57205 -5.04841
lowerback 7.84525 0.260147 0.15958
upperback 2.78936 0.358052 0.244194
thorax -1.51739 0.176221 0.12961
lowerneck 1.41369 0.142335 0.372078
upperneck 4.10572 0.0219153 5.25075
head 1.03241 0.0697738 1.56909
rclavicle 1.47101e-014 -9.54166e-015
rhumerus 15.9835 10.5419 -31.0447
rradius 129.158
rwrist -50.0985
rhand 19.3012 -53.3502
rfingers 7.12502
rthumb 43.8835 -77.2764
lclavicle 1.47101e-014 -9.54166e-015
lhumerus -32.0485 -28.211 86.0747
lradius 124.331
lwrist 14.5843
lhand -4.0519 -31.293
lfingers 7.12502
lthumb 21.7041 -2.48969
rfemur 0 0 0
rtibia 0
rfoot 0 0
rtoes 0
lfemur -6.34666 -4.64084 -9.24034
ltibia 23.4894
lfoot -24.3756 16.1043
ltoes -54.8311
186
root -0.663844 18.7366 5.56772 2.67079 -5.57683 -5.02312
lowerback 7.82766 0.275683 0.120409
upperback 2.74681 0.375918 0.244317
thorax -1.55181 0.185048 0.150087
lowerneck 1.35709 0.153449 0.36158
upperneck 4.18179 0.0318119 5.25697
head 1.06569 0.0769164 1.57376
rclavicle 2.49475e-014 -1.27222e-014
rhumerus 15.8954 10.495 -31.0674
rradius 129.203
rwrist -49.4252
rhand 18.9341 -52.9618
rfingers 7.12502
rthumb 43.5409 -77.0138
lclavicle 2.49475e-014 -1.27222e-014
lhumerus -32.1233 -28.2017 86.1441
lradius 124.338
lwrist 14.6053
lhand -4.00678 -31.163
lfingers 7.12502
lthumb 21.7474 -2.3647
rfemur 0 0 0
rtibia 0
rfoot 0 0
rtoes 0
lfemur -6.34428 -4.61344 -9.27234
ltibia 23.4848
lfoot -24.3139 16.157
ltoes -54.9827
